<svg width="322" height="308" viewBox="0 0 322 308" fill="none" xmlns="http://www.w3.org/2000/svg">
<path d="M183.064 53.0322L192.808 83.0199C192.956 83.4745 193.101 83.9244 193.245 84.3697C195.424 91.1045 197.255 96.7641 200.9 101.114C203.958 104.763 207.867 107.604 212.283 109.384C217.546 111.506 223.494 111.499 230.573 111.49C231.041 111.489 231.514 111.488 231.992 111.488H263.523C278.9 111.488 289.845 111.496 297.705 112.156C306.151 112.865 308.332 114.21 308.701 114.565C311.342 117.109 312.542 120.803 311.901 124.414C311.811 124.918 310.837 127.287 304.421 132.826C298.45 137.979 289.6 144.419 277.159 153.458L251.65 171.991C251.263 172.272 250.88 172.55 250.501 172.824C244.77 176.977 239.953 180.467 236.942 185.278C234.416 189.314 232.923 193.91 232.594 198.66C232.202 204.321 234.048 209.976 236.244 216.705C236.389 217.15 236.536 217.599 236.683 218.054L246.427 248.042C251.179 262.666 254.554 273.078 256.355 280.757C258.29 289.01 257.685 291.499 257.462 291.959C255.858 295.258 252.717 297.541 249.084 298.046C248.577 298.117 246.022 297.923 238.772 293.532C232.026 289.446 223.166 283.019 210.726 273.98L185.217 255.447C184.83 255.166 184.448 254.887 184.07 254.612C178.348 250.444 173.54 246.941 168.035 245.564C163.416 244.409 158.584 244.409 153.965 245.564C148.46 246.941 143.652 250.444 137.931 254.612C137.552 254.887 137.17 255.166 136.783 255.447L111.274 273.98C98.8337 283.019 89.9742 289.446 83.2278 293.532C75.9775 297.923 73.423 298.117 72.9161 298.046C69.2834 297.541 66.1415 295.258 64.5383 291.959C64.3146 291.499 63.7095 289.01 65.6452 280.757C67.4463 273.078 70.8212 262.666 75.573 248.042L85.3166 218.054C85.4644 217.599 85.6111 217.15 85.7563 216.705C87.9523 209.976 89.7977 204.321 89.4058 198.66C89.077 193.91 87.5837 189.314 85.0577 185.278C82.0473 180.467 77.2305 176.977 71.4986 172.824C71.1196 172.549 70.7366 172.272 70.3499 171.991L44.8408 153.458C32.4003 144.419 23.5499 137.979 17.5793 132.826C11.1627 127.287 10.1891 124.918 10.0995 124.414C9.45755 120.803 10.6576 117.109 13.2995 114.565C13.6682 114.21 15.8487 112.865 24.2953 112.156C32.1548 111.496 43.1001 111.488 58.4774 111.488H90.0083C90.4864 111.488 90.9594 111.489 91.4274 111.49C98.5058 111.499 104.454 111.506 109.717 109.384C114.133 107.604 118.042 104.763 121.1 101.114C124.745 96.7642 126.576 91.1046 128.755 84.3699C128.899 83.9246 129.044 83.4746 129.192 83.0199L138.935 53.0322C143.687 38.4075 147.077 28.0003 150.133 20.7294C153.418 12.9154 155.371 11.2571 155.822 11.0162C159.058 9.28977 162.942 9.28977 166.178 11.0162C166.629 11.2571 168.582 12.9154 171.867 20.7294C174.923 28.0003 178.313 38.4075 183.064 53.0322Z" fill="white" stroke="black" stroke-width="18"/>
</svg>
